HIERARCHY
ROOT SpineBase
{
  OFFSET 0.000000 0.000000 0.000000
  CHANNELS 6 Xposition Yposition Zposition Zrotation Xrotation Yrotation
  JOINT SpineMid
  {
    OFFSET 0.000000 29.986576 0.000000
    CHANNELS 3 Zrotation Xrotation Yrotation
    JOINT SpineShoulder
    {
      OFFSET 0.050281 22.184662 -1.019617
      CHANNELS 3 Zrotation Xrotation Yrotation
      JOINT Neck
      {
        OFFSET -0.021883 7.323038 -0.715589
        CHANNELS 3 Zrotation Xrotation Yrotation
        JOINT Head
        {
          OFFSET 4.283839 13.391338 1.594765
          CHANNELS 3 Zrotation Xrotation Yrotation
          End Site
          {
            OFFSET 0 0 0
          }
        }
      }
      JOINT ShoulderLeft
      {
        OFFSET -9.993715 -3.529761 -11.882200
        CHANNELS 3 Zrotation Xrotation Yrotation
        JOINT ElbowLeft
        {
          OFFSET -3.721245 -23.214566 -4.689653
          CHANNELS 3 Zrotation Xrotation Yrotation
          JOINT WristLeft
          {
            OFFSET 7.064377 -21.220832 -1.979173
            CHANNELS 3 Zrotation Xrotation Yrotation
            JOINT HandLeft
            {
              OFFSET 1.973417 -5.002705 0.309587
              CHANNELS 3 Zrotation Xrotation Yrotation
              JOINT HandTipLeft
              {
                OFFSET 2.647226 -6.888550 0.729767
                CHANNELS 3 Zrotation Xrotation Yrotation
                End Site
                {
                  OFFSET 0 0 0
                }
              }
              JOINT ThumbLeft
              {
                OFFSET -3.238923 -2.137767 -0.486894
                CHANNELS 3 Zrotation Xrotation Yrotation
                End Site
                {
                  OFFSET 0 0 0
                }
              }
            }
          }
        }
      }
      JOINT ShoulderRight
      {
        OFFSET 11.560316 -4.739865 8.784735
        CHANNELS 3 Zrotation Xrotation Yrotation
        JOINT ElbowRight
        {
          OFFSET 1.678009 -26.490035 9.728133
          CHANNELS 3 Zrotation Xrotation Yrotation
          JOINT WristRight
          {
            OFFSET 0.991809 -24.622019 1.371323
            CHANNELS 3 Zrotation Xrotation Yrotation
            JOINT HandRight
            {
              OFFSET -0.666898 -4.575005 -6.766712
              CHANNELS 3 Zrotation Xrotation Yrotation
              JOINT HandTipRight
              {
                OFFSET 0.153251 -1.568062 -1.281620
                CHANNELS 3 Zrotation Xrotation Yrotation
                End Site
                {
                  OFFSET 0 0 0
                }
              }
              JOINT ThumbRight
              {
                OFFSET -0.759623 0.508091 -2.333394
                CHANNELS 3 Zrotation Xrotation Yrotation
                End Site
                {
                  OFFSET 0 0 0
                }
              }
            }
          }
        }
      }
    }
  }
  JOINT HipLeft
  {
    OFFSET -5.319750 1.581980 -7.732174
    CHANNELS 3 Zrotation Xrotation Yrotation
    JOINT KneeLeft
    {
      OFFSET -6.853493 -28.328747 1.845240
      CHANNELS 3 Zrotation Xrotation Yrotation
      JOINT AnkleLeft
      {
        OFFSET -5.774110 -33.410443 7.502464
        CHANNELS 3 Zrotation Xrotation Yrotation
        JOINT FootLeft
        {
          OFFSET 7.273393 -3.803716 -10.062542
          CHANNELS 3 Zrotation Xrotation Yrotation
          End Site
          {
            OFFSET 0 0 0
          }
        }
      }
    }
  }
  JOINT HipRight
  {
    OFFSET 5.765016 -0.019939 0.719342
    CHANNELS 3 Zrotation Xrotation Yrotation
    JOINT KneeRight
    {
      OFFSET -2.611388 -26.502489 7.206134
      CHANNELS 3 Zrotation Xrotation Yrotation
      JOINT AnkleRight
      {
        OFFSET -5.365184 -31.631918 5.962218
        CHANNELS 3 Zrotation Xrotation Yrotation
        JOINT FootRight
        {
          OFFSET 7.124879 -3.852932 -10.091465
          CHANNELS 3 Zrotation Xrotation Yrotation
          End Site
          {
            OFFSET 0 0 0
          }
        }
      }
    }
  }
}
MOTION
Frames: 5
Frame Time: 0.033333
-14.585365 65.427866 343.758391 -0.000000 0.000000 -37.323499 -0.000000 0.000000 37.323499 -0.000000 0.000000 0.000000 -0.000000 0.000000 0.000000 0.000000 0.000000 0.000000 -0.000000 0.000000 0.000000 -0.000000 0.000000 0.000000 -0.000000 0.000000 0.000000 -0.000000 0.000000 0.000000 0.000000 0.000000 0.000000 0.000000 0.000000 0.000000 -0.000000 0.000000 0.000000 -0.000000 0.000000 0.000000 -0.000000 0.000000 0.000000 -0.000000 0.000000 0.000000 0.000000 0.000000 0.000000 0.000000 0.000000 0.000000 -0.000000 0.000000 37.323499 -0.000000 0.000000 0.000000 -0.000000 0.000000 0.000000 0.000000 0.000000 0.000000 -0.000000 0.000000 37.323499 -0.000000 0.000000 0.000000 -0.000000 0.000000 0.000000 0.000000 0.000000 0.000000
-14.345569 65.323624 343.739749 0.444782 -0.265783 -36.641410 -0.515506 -0.052193 36.642207 -0.000000 0.000000 0.000000 -0.000000 0.000000 0.000000 0.000000 0.000000 0.000000 -1.367718 -0.653000 0.372906 -2.579176 1.063566 0.176451 -3.806031 0.016924 -0.860227 2.431897 -1.460769 -0.725533 0.000000 0.000000 0.000000 0.000000 0.000000 0.000000 -0.717146 3.790878 0.000595 0.811604 0.596074 0.232063 0.074707 -12.236502 0.773790 -0.130461 -11.567788 -3.409992 0.000000 0.000000 0.000000 0.000000 0.000000 0.000000 -1.605522 -0.471525 36.488304 1.125692 -0.311088 0.151977 -0.000000 0.000000 0.000000 0.000000 0.000000 0.000000 -1.344428 -0.070192 36.410098 0.677803 -0.477524 0.234047 -0.000000 0.000000 0.000000 0.000000 0.000000 0.000000
-14.196371 65.215508 343.703082 0.758666 -0.505584 -35.874420 -0.911018 -0.034938 35.877489 -0.000000 0.000000 0.000000 -0.005188 -1.320382 0.423535 0.000000 0.000000 0.000000 -2.595921 -1.296807 0.702047 -4.899101 2.070776 0.421432 -5.912742 -0.150539 -1.706957 3.147802 -2.047954 -1.275167 0.000000 0.000000 0.000000 0.000000 0.000000 0.000000 -1.391115 6.951673 0.014842 1.602257 1.030665 0.500928 0.500542 -26.741718 1.914158 -1.096985 -14.238829 -6.566429 0.000000 0.000000 0.000000 0.000000 0.000000 0.000000 -2.877585 -0.767743 35.597843 3.136929 -0.878911 0.596881 -1.107856 0.341272 -0.304157 0.000000 0.000000 0.000000 -2.400398 -0.017399 35.463596 1.514733 -1.738019 0.633098 -0.302223 0.863041 -0.201270 0.000000 0.000000 0.000000
-14.137772 65.103519 343.648391 0.941464 -0.719261 -35.028436 -0.183768 -0.003203 35.072108 -0.077205 0.206119 0.029781 -0.656388 -1.441326 0.521815 0.000000 0.000000 0.000000 -4.410694 -1.518948 0.953965 -6.892045 3.015854 0.701063 -6.926400 -0.502267 -2.556068 2.807501 -1.806686 -1.489037 0.000000 0.000000 0.000000 0.000000 0.000000 0.000000 -2.722742 9.887348 -0.024076 2.375889 1.268830 0.790606 1.826046 -43.519592 3.767171 -2.144045 -8.056869 -8.902667 0.000000 0.000000 0.000000 0.000000 0.000000 0.000000 -3.811318 -0.898894 34.664394 4.332926 -1.152337 0.838517 -1.791092 0.654790 0.372008 0.000000 0.000000 0.000000 -3.163207 0.149283 34.492308 2.043777 -2.462933 0.877458 -0.605744 1.474675 0.502391 0.000000 0.000000 0.000000
-14.169771 64.987657 343.575675 0.993159 -0.906728 -34.109860 -0.198470 0.048343 34.158615 -0.103795 0.246675 0.029952 -0.592855 -1.790262 0.651831 0.000000 0.000000 0.000000 -5.438135 -2.051945 1.224081 -8.510904 3.899010 0.983718 -7.274478 -1.048371 -3.424980 1.866569 -0.768489 -1.222229 0.000000 0.000000 0.000000 0.000000 0.000000 0.000000 -3.344837 11.877242 -0.019990 3.142863 1.281291 1.087698 5.319548 -60.567930 7.299198 -2.919178 3.378075 -10.115309 0.000000 0.000000 0.000000 0.000000 0.000000 0.000000 -4.401451 -0.878393 33.697332 5.280148 -1.317973 1.035293 -2.419373 0.823963 0.769679 0.000000 0.000000 0.000000 -3.628313 0.418246 33.502718 2.419078 -3.096345 1.070526 -0.885572 1.950684 0.932609 0.000000 0.000000 0.000000
